Coordinates
version=1
nRows=22
nColumns=26
inDegrees=yes

Units are S.I. units (second, meters, Newtons, ...)
Angles are in degrees.

endheader
time	pelvis_tilt	pelvis_list	pelvis_rotation	pelvis_tx	pelvis_ty	pelvis_tz	hip_flexion_r	hip_adduction_r	hip_rotation_r	knee_angle_r	knee_angle_r_beta	ankle_angle_r	subtalar_angle_r	mtp_angle_r	hip_flexion_l	hip_adduction_l	hip_rotation_l	knee_angle_l	knee_angle_l_beta	ankle_angle_l	subtalar_angle_l	mtp_angle_l	lumbar_extension	lumbar_bending	lumbar_rotation
      1.46000000	    -22.01601082	      9.32111262	      5.43596662	      1.42838963	      0.97240656	      0.33977981	     -6.56945004	     -9.84024768	    -11.06978217	     17.60630118	      0.30728792	    -25.39628507	      0.00000000	      0.00000000	     53.46142183	      9.42958691	     -9.75016826	     43.12201427	      0.75262113	      8.93892109	      0.00000000	      0.00000000	     15.76866420	    -13.06626253	     10.54769201
      1.46400000	    -22.47036261	      9.34635688	      5.65607584	      1.44501408	      0.97346228	      0.33918374	     -6.68191619	     -9.94600074	    -11.11207091	     17.98157779	      0.31383774	    -25.64684328	      0.00000000	      0.00000000	     53.28348700	      9.90648255	     -9.68295086	     39.37664031	      0.68725202	      8.37830122	      0.00000000	      0.00000000	     16.45254919	    -13.28363038	     10.81343767
      1.46800000	    -22.76744217	      9.35085383	      5.75257987	      1.46136298	      0.97449460	      0.33873127	     -6.87033099	    -10.01213124	    -10.90665474	     18.46515116	      0.32227768	    -25.56050286	      0.00000000	      0.00000000	     52.94890863	     10.26592730	     -9.65673072	     35.69393910	      0.62297676	      7.89748327	      0.00000000	      0.00000000	     16.91031430	    -13.41864540	     11.11155142
      1.47200000	    -23.01453366	      9.19181243	      5.76910405	      1.47782243	      0.97530510	      0.33842673	     -7.04989049	     -9.87861961	    -10.39612135	     18.98607714	      0.33136956	    -25.31534217	      0.00000000	      0.00000000	     52.59084644	     10.45475044	     -9.44031810	     32.18458012	      0.56172689	      7.78428386	      0.00000000	      0.00000000	     17.36582614	    -13.34383341	     11.47116684
      1.47600000	    -23.07010498	      9.15412521	      5.76186128	      1.49415609	      0.97615209	      0.33814871	     -7.37805230	     -9.88116745	    -10.03262532	     19.69835105	      0.34380108	    -24.62493646	      0.00000000	      0.00000000	     51.98822891	     10.65551311	     -9.57649091	     28.64595212	      0.49996618	      6.98399713	      0.00000000	      0.00000000	     17.51978950	    -13.38262967	     11.81282124
      1.48000000	    -23.02848156	      8.94839279	      5.71584075	      1.51046249	      0.97687183	      0.33794130	     -7.72541194	     -9.68601524	     -9.51387939	     20.49856524	      0.35776746	    -23.92230894	      0.00000000	      0.00000000	     51.37676975	     10.68880175	     -9.58555651	     25.40326215	      0.44337057	      6.46919137	      0.00000000	      0.00000000	     17.58715780	    -13.21511242	     12.11758169
      1.48400000	    -22.84725197	      8.62599446	      5.62324963	      1.52673624	      0.97746212	      0.33771039	     -8.17211471	     -9.32979479	     -8.73435408	     21.32271551	      0.37215159	    -23.15710282	      0.00000000	      0.00000000	     50.69230669	     10.60274973	     -9.46994104	     22.41802215	      0.39126830	      6.24596955	      0.00000000	      0.00000000	     17.42271090	    -12.87955320	     12.27384151
      1.48800000	    -22.62148253	      8.26703744	      5.50167407	      1.54294358	      0.97790657	      0.33752018	     -8.60304706	     -8.93040928	     -7.89500162	     22.28723415	      0.38898562	    -22.46248969	      0.00000000	      0.00000000	     50.01957544	     10.45204650	     -9.45275732	     19.65428588	      0.34303200	      6.09315787	      0.00000000	      0.00000000	     17.23776876	    -12.48986628	     12.52304831
      1.49200000	    -22.30372279	      7.81528032	      5.34292091	      1.55911778	      0.97824011	      0.33738060	     -9.03486551	     -8.41834991	     -6.98788132	     23.36628880	      0.40781867	    -21.67561092	      0.00000000	      0.00000000	     49.32056571	     10.18333403	     -9.44558828	     17.18221465	      0.29988622	      6.18491316	      0.00000000	      0.00000000	     16.90316756	    -11.97894596	     12.65213116
      1.49600000	    -21.93486481	      7.34868737	      5.18389269	      1.57522067	      0.97841460	      0.33726510	     -9.46612401	     -7.89352196	     -6.02657471	     24.56860630	      0.42880307	    -20.92879275	      0.00000000	      0.00000000	     48.62130820	      9.89106628	     -9.45290600	     14.91748945	      0.26035931	      6.43572264	      0.00000000	      0.00000000	     16.48307630	    -11.46217489	     12.82964485
      1.50000000	    -21.51252269	      6.82506233	      5.00063297	      1.59139393	      0.97843423	      0.33719796	     -9.87510533	     -7.29811829	     -5.02609469	     25.91282345	      0.45226409	    -20.36608408	      0.00000000	      0.00000000	     47.92924856	      9.52143417	     -9.48671179	     12.97113914	      0.22638909	      6.90984669	      0.00000000	      0.00000000	     16.01659737	    -10.86611191	     12.93249005
      1.50400000	    -21.08238315	      6.31353707	      4.80302651	      1.60743755	      0.97837214	      0.33715098	    -10.20824318	     -6.72588787	     -4.01438692	     27.41874654	      0.47854740	    -19.82963224	      0.00000000	      0.00000000	     47.24517848	      9.14270732	     -9.47221120	     11.23442200	      0.19607765	      7.22956352	      0.00000000	      0.00000000	     15.49020191	    -10.28351374	     12.98562729
      1.50800000	    -20.67214433	      5.84474521	      4.62139191	      1.62334132	      0.97813888	      0.33713812	    -10.42653232	     -6.21450118	     -3.08155279	     29.12444881	      0.50831752	    -19.11545730	      0.00000000	      0.00000000	     46.56097725	      8.80785359	     -9.55121645	      9.55856024	      0.16682835	      7.38624007	      0.00000000	      0.00000000	     14.96408739	     -9.76999151	     13.01445757
      1.51200000	    -20.29677780	      5.41365277	      4.44248901	      1.63921677	      0.97773977	      0.33719249	    -10.52981912	     -5.75594543	     -2.20357182	     31.01730909	      0.54135417	    -18.33121490	      0.00000000	      0.00000000	     45.90575851	      8.48963064	     -9.65410888	      8.05567296	      0.14059802	      7.44638298	      0.00000000	      0.00000000	     14.46415914	     -9.31618691	     13.05965295
      1.51600000	    -19.79844474	      4.84446516	      4.39842684	      1.65514499	      0.97732932	      0.33706640	    -10.82223758	     -5.12859586	     -1.62186868	     32.72836185	      0.57121767	    -18.44492780	      0.00000000	      0.00000000	     45.31871122	      8.08858828	     -9.99652829	      7.20967100	      0.12583250	      7.82812382	      0.00000000	      0.00000000	     13.80316889	     -8.74959390	     12.75620973
      1.52000000	    -19.24600622	      4.40789884	      4.18749852	      1.67086114	      0.97692136	      0.33716532	    -10.94295102	     -4.65323214	     -0.74665835	     34.89222857	      0.60898427	    -18.26988582	      0.00000000	      0.00000000	     44.56751438	      7.69016575	     -9.97007771	      6.25802330	      0.10922311	      8.10273352	      0.00000000	      0.00000000	     13.05903722	     -8.26892186	     12.79120328
      1.52400000	    -19.03347226	      4.19339866	      3.89083602	      1.68645242	      0.97590769	      0.33745943	    -10.55607455	     -4.44740391	      0.28147373	     37.45670993	      0.65374292	    -16.98686334	      0.00000000	      0.00000000	     44.01197550	      7.43550772	    -10.02092617	      5.08221407	      0.08870137	      7.88788684	      0.00000000	      0.00000000	     12.71507361	     -8.07329460	     13.01336753
      1.52800000	    -18.57572059	      3.84384998	      3.73969113	      1.70204556	      0.97503274	      0.33757890	    -10.46270116	     -4.06795706	      0.96676213	     39.89278086	      0.69626037	    -16.63156328	      0.00000000	      0.00000000	     43.38404445	      7.11860611	    -10.09091026	      4.48123981	      0.07821239	      8.00712504	      0.00000000	      0.00000000	     12.06641927	     -7.74947856	     12.99890127
      1.53200000	    -18.10678173	      3.51322164	      3.58489991	      1.71753593	      0.97406665	      0.33769763	    -10.33243556	     -3.71145905	      1.62896843	     42.39878172	      0.73999834	    -16.49369295	      0.00000000	      0.00000000	     42.74115611	      6.81319621	    -10.12013898	      4.04603555	      0.07061664	      8.25816214	      0.00000000	      0.00000000	     11.37900402	     -7.45000676	     12.93513695
      1.53600000	    -17.55286359	      3.09389601	      3.65666763	      1.73301633	      0.97313222	      0.33752824	    -10.36752249	     -3.24324327	      1.92831029	     44.68983161	      0.77998470	    -16.76501108	      0.00000000	      0.00000000	     42.07620454	      6.54496106	    -10.30514328	      3.92253859	      0.06846121	      8.44178333	      0.00000000	      0.00000000	     10.54882905	     -7.09470211	     12.39869312
      1.54000000	    -17.35664598	      2.93518731	      3.33301314	      1.74822488	      0.97149756	      0.33788365	     -9.70006553	     -3.10889017	      2.72640086	     47.71999275	      0.83287099	    -16.04898324	      0.00000000	      0.00000000	     41.66182764	      6.26375866	    -10.17595294	      3.65382683	      0.06377131	      8.82876590	      0.00000000	      0.00000000	     10.18495347	     -6.96764857	     12.62281759
      1.54400000	    -17.04602420	      2.69742345	      3.25691577	      1.76342769	      0.96989445	      0.33789173	     -9.24544661	     -2.87714564	      3.10835069	     50.50975545	      0.88156154	    -15.73904570	      0.00000000	      0.00000000	     41.23306110	      6.04232048	    -10.05530886	      3.81271568	      0.06654444	      9.13432265	      0.00000000	      0.00000000	      9.67761385	     -6.79024754	     12.50557207
